<svg width="44" height="43" viewBox="0 0 44 43" fill="none" xmlns="http://www.w3.org/2000/svg">
<rect width="44" height="42.9202" rx="10" fill="#4682B4"/>
<path d="M28.27 13.0224C27.8 12.9541 27.26 12.9248 26.5 12.9248H17.5C16.75 12.9248 16.2 12.9541 15.76 13.0126C12.41 13.3735 11.75 15.3147 11.75 18.5337V24.3865C11.75 27.6055 12.41 29.5466 15.73 29.8978C16.2 29.9661 16.74 29.9954 17.5 29.9954H26.5C27.25 29.9954 27.8 29.9661 28.24 29.9076C31.59 29.5466 32.25 27.6152 32.25 24.3865V18.5337C32.25 15.3147 31.59 13.3735 28.27 13.0224ZM20.09 18.5337C20.65 18.5337 21.1 18.9727 21.1 19.5092C21.1 20.0457 20.65 20.4846 20.1 20.4846C19.55 20.4846 19.1 20.0457 19.1 19.5092C19.1 18.9727 19.54 18.5337 20.09 18.5337ZM17.09 18.5337C17.66 18.5337 18.1 18.9727 18.1 19.5092C18.1 20.0457 17.65 20.4846 17.1 20.4846C16.55 20.4846 16.1 20.0457 16.1 19.5092C16.1 18.9727 16.54 18.5337 17.09 18.5337ZM27 25.6058H17.02C16.61 25.6058 16.26 25.2741 16.26 24.8742C16.26 24.4743 16.59 24.1426 17 24.1426H27C27.41 24.1426 27.75 24.4743 27.75 24.8742C27.75 25.2741 27.41 25.6058 27 25.6058ZM27 20.2408H23.5C23.09 20.2408 22.75 19.9091 22.75 19.5092C22.75 19.1092 23.09 18.7776 23.5 18.7776H27C27.41 18.7776 27.75 19.1092 27.75 19.5092C27.75 19.9091 27.41 20.2408 27 20.2408Z" fill="white"/>
</svg>
