<svg width="44" height="44" viewBox="0 0 44 44" fill="none" xmlns="http://www.w3.org/2000/svg">
<rect width="44" height="44" rx="10" fill="#4682B4"/>
<path d="M25 11.62H19C15.81 11.62 14.62 12.81 14.62 16V28C14.62 31.19 15.81 32.38 19 32.38H25C28.19 32.38 29.38 31.19 29.38 28V16C29.38 12.81 28.19 11.62 25 11.62ZM22 16C22.83 16 23.5 16.67 23.5 17.5C23.5 18.33 22.83 19 22 19C21.17 19 20.5 18.33 20.5 17.5C20.5 16.67 21.17 16 22 16ZM22 28C20.34 28 19 26.66 19 25C19 23.34 20.34 22 22 22C23.66 22 25 23.34 25 25C25 26.66 23.66 28 22 28Z" fill="white"/>
</svg>
